<svg width="33" height="33" viewBox="0 0 33 33" fill="none" xmlns="http://www.w3.org/2000/svg">
<path d="M16.0672 0.642731L17.5518 10.5416L21.0462 1.16181L19.3991 11.0349L25.621 3.19405L21.0036 12.075L29.3439 6.54052L22.2081 13.5599L31.8505 10.8737L22.8949 15.3444L32.8954 15.7693L22.9965 17.2538L32.3763 20.7482L22.5032 19.1012L30.3441 25.323L21.4632 20.7056L26.9976 29.046L19.9782 21.9102L22.6645 31.5526L18.1937 22.5969L17.7688 32.5975L16.2843 22.6986L12.7899 32.0784L14.437 22.2053L8.21509 30.0461L12.8325 21.1652L4.49216 26.6997L11.6279 19.6803L1.98557 22.3665L10.9412 17.8958L0.940673 17.4709L10.8395 15.9864L1.45975 12.492L11.3329 14.139L3.49199 7.91715L12.3729 12.5345L6.83847 4.19422L13.8579 11.33L11.1716 1.68763L15.6424 10.6433L16.0672 0.642731Z" fill="#053A2B"/>
</svg>
